# xmcd CD database file
#
# Track frame offsets:
#	187
#	8897
#	29672
#	51535
#	61400
#	94400
#	114185
#	136087
#	152252
#	169840
#
# Disc length: 2560 seconds
#
# Revision: 6
# Processed by: cddbd v1.5PL3 Copyright (c) Steve Scherf et al.
# Submitted via: CDex 1.51
#
DISCID=7e09fe0a
DTITLE=The Alan Parsons Project - Eye in the Sky
DYEAR=1982
DGENRE=Progressive Rock
TTITLE0=Sirius
TTITLE1=Eye in the Sky
TTITLE2=Children of the Moon
TTITLE3=Gemini
TTITLE4=Silence and I
TTITLE5=You're Gonna Get Your Fingers Burned
TTITLE6=Psychobabble
TTITLE7=Mammagamma
TTITLE8=Step By Step
TTITLE9=Old and Wise
EXTD=YEAR: 1982
EXTT0=
EXTT1=
EXTT2=
EXTT3=
EXTT4=
EXTT5=
EXTT6=
EXTT7=
EXTT8=
EXTT9=
PLAYORDER=
